@startuml Diagrama

class Persona
class Foco{
    - Bool encendido
    + Encender()
    + Apagar()
    
}

Persona o-- Foco

class Juego
class Mapa 
class Jugador
class Serpiente 
class Eslabon
class Cabeza
class Fruta
class Colisionable
class Pared 



Juego "1"*-- "1" Jugador
Jugador "1" o-- "1" Serpiente
Serpiente "1" *-- "*" Eslabon
Serpiente "1" *-- "1" Cabeza
Cabeza --|> Eslabon
Cabeza  "1" o-- "1" Fruta
Eslabon --|> Colisionable
Pared --|> Colisionable
Mapa "1" *-- "4" Pared


class Dibujo
class Lienzo
class Pintor 
 Lienzo "1" *-- "*" Dibujo
 Pintor "1" *-- "*" Dibujo
 Pintor "1" o-- "1" Lienzo

 Eslabon --|> "1" Dibujo
 Fruta --|> "1" Dibujo
 Mapa --|> "1" Dibujo
 Juego "1" o-- "1" Pintor



@enduml

